<?xml version="1.0" encoding="utf-8"?>
<!-- Generator: Adobe Illustrator 20.1.0, SVG Export Plug-In . SVG Version: 6.00 Build 0)  -->
<svg version="1.1" id="Layer_1" xmlns="http://www.w3.org/2000/svg" xmlns:xlink="http://www.w3.org/1999/xlink" x="0px" y="0px"
	 viewBox="0 0 159 147.6" style="enable-background:new 0 0 159 147.6;" xml:space="preserve">
<style type="text/css">
	.st0{fill:#1B3D6E;}
</style>
<title>logoitj_login</title>
<g>
	<g>
		<g>
			<path class="st0" d="M114.8,99.5V69v-1.6v-3.2c0-4.8-6.9-3.7-6.9-3.7v-3.3H130v3.2c0,0-6.9-0.9-6.9,3.7v3.2v1.6v33.8
				c0,0,0.5,7-9,6.9c-7.2-0.1-8.9-5.7-8.9-5.7s-0.7-2.2,1.1-3.3c0,0,1.6-1.2,3.4,0.6c0,0,1,1,2,1
				C112.9,102.2,114.8,101.7,114.8,99.5"/>
		</g>
		<g>
			<path class="st0" d="M92.9,38.2c-5.5-1.2-6.6,2-6.6,2l-0.1,59.3c0,10.2,8.2,10.2,10.1,10.2v3.5H65.5v-3.5
				c2.2,0,10.4-0.1,10.4-10.3c0-7.7-0.3-59.3-0.3-59.3s-1-3.3-6.8-2c-5.7,1.3-12.7,7.7-15.2,13.1h-7l6.9-17h54.8l6.9,17h-6.9
				C108.5,51.3,103.1,40.5,92.9,38.2"/>
		</g>
		<g>
			<path class="st0" d="M47.2,68.8v34.1c0,4.8,6.9,3.7,6.9,3.7v3.2H31.9v-3.2c0,0,6.9,1,6.9-3.6V68.9v-1.6V64c0-4.5-6.9-3.4-6.9-3.4
				v-3.2h22.2v3.2c0,0-6.9-1.2-6.9,3.4v3.2L47.2,68.8z"/>
		</g>
		<g>
			<path class="st0" d="M142.7,73.6c0,35-28.3,63.3-63.3,63.3s-63.3-28.3-63.3-63.3s28.3-63.3,63.3-63.3
				C114.4,10.3,142.7,38.7,142.7,73.6 M149.8,73.6c0-38.8-31.5-70.3-70.3-70.3S9.2,34.8,9.2,73.6s31.5,70.3,70.3,70.3
				S149.8,112.5,149.8,73.6"/>
		</g>
	</g>
</g>
</svg>
