<?xml version="1.0" encoding="utf-8"?>
<!-- Generator: Adobe Illustrator 20.1.0, SVG Export Plug-In . SVG Version: 6.00 Build 0)  -->
<svg version="1.1" id="Layer_1" xmlns="http://www.w3.org/2000/svg" xmlns:xlink="http://www.w3.org/1999/xlink" x="0px" y="0px"
	 viewBox="0 0 571.8 147.6" style="enable-background:new 0 0 571.8 147.6;" xml:space="preserve">
<style type="text/css">
	.st0{fill:#FFFFFF;}
</style>
<title>logoitj_login</title>
<path class="st0" d="M120.9,100.8v-37c0-5.1-7.2-3.9-7.2-3.9v-3.4h23.2v3.3c0,0-7.2-0.9-7.2,3.9v40.4c0,0,0.5,7.4-9.4,7.2
	c-7.6-0.1-9.4-6-9.4-6c-0.4-1.3,0-2.7,1.1-3.5c0,0,1.7-1.3,3.5,0.7c0.6,0.6,1.3,1,2.1,1.1c1.6,0.1,3-1,3.1-2.6
	C120.8,100.9,120.8,100.9,120.9,100.8"/>
<path class="st0" d="M97.9,36.6c-5.8-1.3-6.9,2.1-6.9,2.1l-0.1,62.1c0,10.6,8.6,10.7,10.6,10.7v3.6H69.2v-3.6
	c2.3,0,10.9-0.1,10.9-10.8c0-8-0.3-62.1-0.3-62.1s-1.1-3.4-7.1-2.1s-13.2,8.1-15.9,13.7h-7.3l7.2-17.8h57.4l7.2,17.8h-7.2
	C114.2,50.3,108.6,39,97.9,36.6"/>
<path class="st0" d="M50,68.6v35.7c0,5,7.2,3.9,7.2,3.9v3.3H34v-3.3c0,0,7.2,1.1,7.2-3.8V63.6c0-4.7-7.2-3.6-7.2-3.6v-3.3h23.2v3.3
	c0,0-7.2-1.2-7.2,3.5L50,68.6L50,68.6z"/>
<path class="st0" d="M150.1,73.7c0,36.6-29.7,66.3-66.3,66.3s-66.3-29.7-66.3-66.3c0-36.6,29.7-66.3,66.3-66.3
	C120.4,7.4,150.1,37.1,150.1,73.7L150.1,73.7 M157.5,73.7C157.5,33,124.5,0,83.8,0C43.1,0,10.1,33,10.1,73.7s33,73.7,73.7,73.7
	C124.5,147.3,157.4,114.3,157.5,73.7"/>
<polygon class="st0" points="3.3,141.1 3.3,134.3 5.4,134.3 6.6,138.9 7.8,134.3 9.8,134.3 9.8,141.1 8.6,141.1 8.6,135.8 
	7.2,141.1 5.9,141.1 4.6,135.8 4.6,141.1 "/>
<path class="st0" d="M11.8,137.2h1c0.4,0,0.8,0,1.2-0.1c0.2,0,0.3-0.1,0.4-0.3c0.1-0.2,0.1-0.3,0.1-0.5c0-0.2-0.1-0.4-0.2-0.6
	c-0.1-0.1-0.3-0.2-0.5-0.3c-0.1,0-0.4,0-1,0h-1.1V137.2z M10.4,141.1v-6.7h2.9c0.5,0,1.1,0,1.6,0.2c0.3,0.1,0.6,0.4,0.8,0.6
	c0.2,0.3,0.3,0.7,0.3,1.1c0,0.5-0.1,0.9-0.4,1.2c-0.4,0.4-0.8,0.6-1.3,0.6c0.3,0.2,0.5,0.3,0.7,0.6c0.3,0.3,0.5,0.7,0.8,1.1l0.8,1.3
	h-1.6l-1-1.5c-0.2-0.3-0.5-0.7-0.7-1c-0.1-0.1-0.3-0.2-0.4-0.3c-0.2-0.1-0.5-0.1-0.7-0.1h-0.3v2.8H10.4z"/>
<path class="st0" d="M1.2,137.7c0,4.8,3.9,8.7,8.7,8.7s8.7-3.9,8.7-8.7c0-4.8-3.9-8.7-8.7-8.7C5.1,129,1.2,132.9,1.2,137.7 M0,137.7
	c0-5.5,4.4-9.9,9.9-9.9s9.9,4.4,9.9,9.9c0,5.5-4.4,9.9-9.9,9.9C4.4,147.6,0,143.2,0,137.7C0,137.7,0,137.7,0,137.7"/>
<path class="st0" d="M190.4,100l-1.3,1c-0.7-0.9-1.5-1.6-2.5-2.1c-1-0.5-2.1-0.7-3.2-0.7c-1.3,0-2.5,0.3-3.6,0.9
	c-1.1,0.6-1.9,1.4-2.6,2.5c-0.6,1.1-0.9,2.3-0.9,3.5c-0.1,1.9,0.7,3.6,2,4.9c1.4,1.3,3.2,2.1,5.1,2c2.2,0,4.3-0.9,5.7-2.7l1.3,1
	c-0.8,1-1.8,1.8-3,2.4c-1.3,0.6-2.6,0.9-4,0.8c-2.5,0.1-5-0.9-6.7-2.8c-1.4-1.6-2.1-3.7-2.1-5.8c-0.1-2.3,0.8-4.4,2.5-6
	c1.7-1.6,3.9-2.5,6.2-2.4c1.4,0,2.8,0.3,4.1,0.9C188.7,98.1,189.7,98.9,190.4,100z"/>
<path class="st0" d="M200.3,97l7.6,16.2h-1.8l-2.6-5.3h-7l-2.5,5.3h-1.8l7.6-16.2H200.3z M200.1,100.4l-2.8,5.9h5.5L200.1,100.4z"/>
<path class="st0" d="M209.6,113.2l2.3-16.2h0.3l6.6,13.3l6.5-13.3h0.3l2.3,16.2h-1.6l-1.6-11.6l-5.7,11.6h-0.4l-5.8-11.7l-1.6,11.7
	H209.6z"/>
<path class="st0" d="M231.1,97h3.2c1.3,0,2.5,0,3.7,0.2c0.9,0.2,1.7,0.7,2.3,1.4c1.2,1.6,1.2,3.7,0,5.3c-0.6,0.7-1.4,1.2-2.4,1.4
	c-1.4,0.2-2.7,0.3-4.1,0.3h-1.1v7.5H231L231.1,97z M232.7,98.6v5.5h2.7c0.8,0,1.6-0.1,2.4-0.3c0.5-0.2,0.9-0.5,1.2-1
	c0.3-0.4,0.4-1,0.4-1.5c0-0.5-0.1-1-0.4-1.5c-0.3-0.4-0.7-0.8-1.2-1c-0.8-0.2-1.6-0.3-2.4-0.3L232.7,98.6z"/>
<path class="st0" d="M244.4,97h1.6v9.8c0,0.7,0,1.4,0.1,2.2c0.1,0.6,0.2,1.1,0.6,1.6c0.3,0.5,0.8,0.8,1.4,1.1
	c0.6,0.3,1.2,0.4,1.8,0.4c0.5,0,1.1-0.1,1.5-0.3c0.5-0.2,0.9-0.5,1.2-0.9c0.3-0.4,0.6-0.9,0.7-1.5c0.1-0.8,0.2-1.7,0.2-2.5V97h1.6
	v9.8c0,1.2-0.1,2.4-0.4,3.5c-0.3,0.9-0.9,1.7-1.7,2.3c-0.9,0.7-2,1-3.1,1c-1.2,0-2.4-0.3-3.4-0.9c-0.9-0.6-1.6-1.5-1.9-2.5
	c-0.2-1.1-0.3-2.3-0.3-3.4L244.4,97z"/>
<path class="st0" d="M257.5,110.2l1.4-0.8c1,1.8,2.1,2.7,3.4,2.7c0.5,0,1.1-0.1,1.5-0.4c0.4-0.2,0.8-0.6,1.1-1
	c0.2-0.4,0.4-0.9,0.4-1.4c0-0.6-0.2-1.1-0.5-1.6c-0.8-1-1.7-1.9-2.8-2.6c-0.9-0.6-1.8-1.4-2.5-2.2c-0.6-0.7-0.9-1.6-0.9-2.5
	c0-0.7,0.2-1.3,0.5-1.9c0.3-0.6,0.8-1.1,1.4-1.4c0.6-0.3,1.3-0.5,2-0.5c0.8,0,1.5,0.2,2.1,0.6c0.8,0.5,1.6,1.3,2.1,2.1l-1.3,1
	c-0.4-0.6-0.9-1.2-1.6-1.6c-0.4-0.3-0.9-0.4-1.4-0.4c-0.6,0-1.2,0.2-1.6,0.6c-0.4,0.4-0.6,0.9-0.6,1.5c0,0.3,0.1,0.7,0.2,1
	c0.2,0.4,0.5,0.8,0.8,1.1c0.2,0.2,0.9,0.7,2.1,1.6c1.1,0.7,2.1,1.7,2.9,2.8c0.5,0.7,0.8,1.6,0.8,2.4c0,1.2-0.5,2.3-1.3,3.1
	c-0.9,0.9-2,1.3-3.2,1.3c-0.9,0-1.9-0.3-2.7-0.8C258.8,112.1,258,111.2,257.5,110.2z"/>
<path class="st0" d="M292.3,99.7l-1.3,1.2c-0.9-0.9-1.9-1.5-3-2c-1-0.4-2.1-0.7-3.1-0.7c-1.3,0-2.5,0.3-3.6,0.9
	c-1.1,0.6-2,1.5-2.7,2.5c-0.6,1-0.9,2.2-1,3.4c0,1.2,0.4,2.4,1,3.5c0.7,1.1,1.6,2,2.7,2.6c1.2,0.6,2.5,1,3.8,0.9
	c1.5,0,3-0.5,4.2-1.4c1.1-0.9,1.8-2.2,2-3.6h-5.2v-1.6h7c0.1,2.2-0.7,4.4-2.2,6c-1.6,1.5-3.7,2.3-5.9,2.2c-2.7,0.1-5.3-1-7.1-3.1
	c-1.3-1.5-2-3.4-2-5.4c0-1.5,0.4-3,1.2-4.3c0.8-1.3,1.8-2.4,3.2-3.1c1.4-0.8,3-1.1,4.6-1.1c1.3,0,2.6,0.2,3.9,0.7
	C290,97.9,291.2,98.7,292.3,99.7z"/>
<path class="st0" d="M296.4,97h1.6v9.8c0,0.7,0,1.4,0.1,2.2c0.1,0.6,0.2,1.1,0.6,1.6c0.3,0.5,0.8,0.8,1.4,1.1
	c0.6,0.3,1.2,0.4,1.8,0.4c0.5,0,1.1-0.1,1.5-0.3c0.5-0.2,0.9-0.5,1.2-0.9c0.3-0.4,0.6-0.9,0.7-1.5c0.1-0.8,0.2-1.7,0.2-2.5V97h1.6
	v9.8c0,1.2-0.1,2.4-0.4,3.5c-0.3,0.9-0.9,1.7-1.7,2.3c-0.9,0.7-2,1-3.1,1c-1.2,0-2.4-0.3-3.4-0.9c-0.9-0.6-1.6-1.5-1.9-2.5
	c-0.2-1.1-0.4-2.3-0.3-3.4L296.4,97z"/>
<path class="st0" d="M317.7,97l7.5,16.2h-1.8l-2.5-5.3h-7l-2.5,5.3h-1.8l7.6-16.2H317.7z M317.5,100.4l-2.8,5.9h5.5L317.5,100.4z"/>
<path class="st0" d="M327.7,113.2V97h3.4c1.8-0.1,3.6,0.1,5.3,0.6c1.5,0.5,2.8,1.5,3.7,2.9c0.9,1.5,1.4,3.1,1.3,4.9
	c0,1.5-0.3,3-1,4.3c-0.6,1.2-1.6,2.1-2.7,2.7c-1.5,0.7-3.1,1-4.7,0.9L327.7,113.2z M329.3,111.6h1.9c1.6,0.1,3.1-0.1,4.6-0.4
	c1.2-0.4,2.2-1.1,2.9-2.1c0.7-1.1,1.1-2.4,1-3.8c0-1.4-0.4-2.8-1.1-4c-0.7-1.1-1.8-1.9-3.1-2.2c-1.6-0.4-3.3-0.5-5-0.5h-1.1
	L329.3,111.6z"/>
<path class="st0" d="M351.1,97l7.5,16.2h-1.8l-2.5-5.3h-7l-2.5,5.3h-1.8l7.6-16.2H351.1z M350.9,100.4l-2.8,5.9h5.5L350.9,100.4z"/>
<path class="st0" d="M361.2,97h1.6v14.6h6.2v1.6h-7.9V97z"/>
<path class="st0" d="M378.2,97l7.5,16.2H384l-2.6-5.3h-7l-2.5,5.3h-1.8l7.6-16.2H378.2z M378,100.4l-2.8,5.9h5.5L378,100.4z"/>
<path class="st0" d="M393.6,97h1.6v10.9c0.1,1.2-0.1,2.4-0.4,3.5c-0.3,0.6-0.7,1.2-1.3,1.6c-0.7,0.4-1.4,0.6-2.2,0.6
	c-0.7,0-1.3-0.1-1.9-0.4c-0.8-0.3-1.5-0.8-2.1-1.3l0.9-1.3c0.7,0.5,1.4,0.9,2.1,1.3c0.3,0.2,0.7,0.2,1.1,0.2c0.5,0,0.9-0.1,1.3-0.4
	c0.4-0.3,0.7-0.7,0.8-1.1c0.2-0.9,0.3-1.8,0.2-2.7L393.6,97z"/>
<path class="st0" d="M405.8,97l7.5,16.2h-1.8l-2.5-5.3h-7l-2.5,5.3h-1.8l7.6-16.2H405.8z M405.6,100.4l-2.8,5.9h5.5L405.6,100.4z"/>
<path class="st0" d="M415.9,97h3.2c1.2,0,2.4,0,3.6,0.2c0.9,0.2,1.7,0.7,2.4,1.4c0.6,0.8,0.9,1.7,0.9,2.7c0,0.8-0.2,1.6-0.6,2.3
	c-0.4,0.7-1,1.2-1.8,1.5c-1,0.4-2.1,0.6-3.2,0.5l5.8,7.5h-2l-5.8-7.5h-0.9v7.5h-1.6V97z M417.5,98.6v5.5h2.8c0.8,0,1.6-0.1,2.4-0.3
	c0.5-0.2,0.9-0.5,1.2-1c0.3-0.5,0.4-1,0.4-1.5c0-0.5-0.1-1-0.4-1.5c-0.3-0.4-0.7-0.8-1.2-1c-0.8-0.2-1.6-0.3-2.4-0.3L417.5,98.6z"/>
<path class="st0" d="M436.1,97l7.5,16.2h-1.8l-2.5-5.3h-7l-2.5,5.3h-1.8l7.6-16.2H436.1z M435.9,100.4l-2.8,5.9h5.5L435.9,100.4z"/>
<path class="st0" d="M451.1,97h3.2l4.1,11.5l4.1-11.5h3.2l-5.8,16.2h-3L451.1,97z"/>
<path class="st0" d="M473,97h3.1l6.2,16.2h-3.2l-1.3-3.3h-6.6l-1.3,3.3h-3.2L473,97z M474.6,101.3l-2.2,5.6h4.3L474.6,101.3z"/>
<path class="st0" d="M484.8,97h3.1v13.2h4.5v2.9h-7.6L484.8,97z"/>
<path class="st0" d="M494.7,97h3.1v13.2h4.5v2.9h-7.6V97z"/>
<path class="st0" d="M504.6,97h8.8v3h-5.8v2.9h5.8v3h-5.8v4.3h5.8v3h-8.8L504.6,97z"/>
<path class="st0" d="M522.9,97h3.3c1.3-0.1,2.6,0.1,3.8,0.5c0.8,0.3,1.4,0.9,1.8,1.6c0.5,0.8,0.7,1.7,0.7,2.6c0,0.9-0.2,1.9-0.8,2.7
	c-0.6,0.8-1.4,1.3-2.3,1.6l3.8,7.2h-3.4l-3.6-6.9h-0.3v6.9h-3.1V97z M525.9,103.3h1c0.7,0.1,1.4-0.1,2-0.4c0.4-0.3,0.6-0.8,0.5-1.3
	c0-0.3-0.1-0.6-0.3-0.9c-0.2-0.3-0.4-0.5-0.7-0.6c-0.6-0.1-1.1-0.2-1.7-0.2h-0.8L525.9,103.3z"/>
<path class="st0" d="M535.7,97h8.8v3h-5.8v2.9h5.8v3h-5.8v4.3h5.8v3h-8.8V97z"/>
<path class="st0" d="M552.4,97h3.1l6.2,16.2h-3.2l-1.3-3.3h-6.6l-1.3,3.3h-3.2L552.4,97z M554,101.3l-2.2,5.6h4.3L554,101.3z"/>
<path class="st0" d="M564.1,97h3.1v13.2h4.5v2.9h-7.6L564.1,97z"/>
<path class="st0" d="M180.9,122.7l6.6,14.3h-1.5l-2.2-4.7h-6.1l-2.2,4.7h-1.6l6.7-14.3H180.9z M180.8,125.7l-2.4,5.2h4.9
	L180.8,125.7z"/>
<path class="st0" d="M189.8,137v-14.3h0.3l9.5,10.9v-10.9h1.4V137h-0.3l-9.4-10.8V137H189.8z"/>
<path class="st0" d="M215.8,122.7l6.6,14.3h-1.5l-2.2-4.7h-6.2l-2.2,4.7h-1.6l6.7-14.3H215.8z M215.7,125.7l-2.4,5.2h4.9
	L215.7,125.7z"/>
<path class="st0" d="M238,125.3l-1.1,0.9c-0.6-0.8-1.4-1.4-2.2-1.8c-0.9-0.4-1.9-0.6-2.9-0.6c-1.1,0-2.2,0.3-3.2,0.8
	c-0.9,0.5-1.7,1.3-2.3,2.2c-0.5,0.9-0.8,2-0.8,3.1c0,1.6,0.6,3.2,1.8,4.4c1.2,1.2,2.8,1.8,4.5,1.8c1.9,0,3.8-0.8,5-2.4l1.1,0.9
	c-0.7,0.9-1.6,1.6-2.7,2.1c-1.1,0.5-2.3,0.8-3.6,0.7c-2.2,0.1-4.4-0.8-5.9-2.5c-1.2-1.4-1.9-3.2-1.8-5.1c0-2,0.8-3.9,2.2-5.3
	c1.5-1.4,3.5-2.2,5.5-2.1c1.2,0,2.5,0.3,3.6,0.8C236.4,123.6,237.3,124.4,238,125.3z"/>
<path class="st0" d="M254.1,125.3l-1.1,0.9c-0.6-0.8-1.4-1.4-2.2-1.8c-0.9-0.4-1.9-0.6-2.9-0.6c-1.1,0-2.2,0.3-3.2,0.8
	c-0.9,0.5-1.7,1.3-2.3,2.2c-0.5,0.9-0.8,2-0.8,3.1c0,1.6,0.6,3.2,1.8,4.4c1.2,1.2,2.8,1.8,4.5,1.8c1.9,0,3.8-0.8,5-2.4l1.1,0.9
	c-0.7,0.9-1.6,1.6-2.7,2.1c-1.1,0.5-2.3,0.8-3.6,0.7c-2.2,0.1-4.4-0.8-5.9-2.5c-1.2-1.4-1.9-3.2-1.8-5.1c0-2,0.8-3.9,2.2-5.3
	c1.5-1.4,3.5-2.2,5.5-2.1c1.2,0,2.5,0.3,3.6,0.8C252.5,123.6,253.5,124.4,254.1,125.3z"/>
<path class="st0" d="M257.1,122.7h2.8c1.1,0,2.2,0,3.2,0.2c0.8,0.2,1.5,0.6,2.1,1.2c0.5,0.7,0.8,1.5,0.8,2.4c0,0.7-0.2,1.4-0.5,2
	c-0.4,0.6-0.9,1.1-1.6,1.3c-0.9,0.3-1.9,0.5-2.8,0.5l5.1,6.6h-1.8l-5.1-6.6h-0.9v6.6H257L257.1,122.7z M258.5,124.1v4.9h2.5
	c0.7,0,1.4-0.1,2.1-0.3c0.4-0.2,0.8-0.5,1.1-0.9c0.3-0.4,0.4-0.9,0.4-1.3c0-0.5-0.1-0.9-0.4-1.3c-0.2-0.4-0.6-0.7-1-0.8
	c-0.7-0.2-1.4-0.3-2.1-0.2L258.5,124.1z"/>
<path class="st0" d="M269.1,122.7h8.2v1.4h-6.8v4.5h6.7v1.4h-6.7v5.6h6.7v1.4H269L269.1,122.7z"/>
<path class="st0" d="M279.7,137v-14.3h3c1.6-0.1,3.1,0.1,4.6,0.5c1.3,0.4,2.5,1.3,3.2,2.5c0.8,1.3,1.2,2.8,1.2,4.3
	c0,1.3-0.3,2.6-0.9,3.8c-0.6,1-1.4,1.9-2.4,2.4c-1.3,0.6-2.7,0.9-4.1,0.8H279.7z M281.1,135.6h1.6c1.4,0.1,2.8-0.1,4.1-0.4
	c1-0.3,1.9-1,2.5-1.9c0.6-1,1-2.2,0.9-3.3c0-1.3-0.3-2.5-1-3.5c-0.7-1-1.6-1.7-2.8-2c-1.4-0.3-2.9-0.5-4.4-0.4h-1L281.1,135.6z"/>
<path class="st0" d="M294.3,122.7h1.4V137h-1.4V122.7z"/>
<path class="st0" d="M297.6,124.1v-1.4h7.8v1.4h-3.2v12.9h-1.5v-12.9H297.6z"/>
<path class="st0" d="M307.5,122.7h8.2v1.4h-6.8v4.5h6.7v1.4h-6.7v5.6h6.7v1.4h-8.1V122.7z"/>
<path class="st0" d="M318.1,137v-14.3h3c1.6-0.1,3.1,0.1,4.6,0.5c1.3,0.4,2.5,1.3,3.2,2.5c0.8,1.3,1.2,2.8,1.2,4.3
	c0,1.3-0.3,2.6-0.9,3.8c-0.5,1-1.4,1.9-2.4,2.4c-1.3,0.6-2.7,0.9-4.1,0.8H318.1z M319.5,135.6h1.6c1.4,0.1,2.8-0.1,4.1-0.4
	c1-0.3,1.9-1,2.5-1.9c0.6-1,1-2.2,0.9-3.3c0-1.3-0.3-2.5-1-3.5c-0.7-1-1.7-1.7-2.8-2c-1.4-0.3-2.9-0.5-4.4-0.4h-1V135.6z"/>
<path class="st0" d="M338.2,122.7h1.4V137h-1.4V122.7z"/>
<path class="st0" d="M342.9,137v-14.3h0.3l9.5,10.9v-10.9h1.4V137h-0.3l-9.4-10.8V137H342.9z"/>
<path class="st0" d="M356.1,124.1v-1.4h7.8v1.4h-3.2v12.9h-1.5v-12.9H356.1z"/>
<path class="st0" d="M366,122.7h8.2v1.4h-6.8v4.5h6.7v1.4h-6.7v5.6h6.7v1.4H366V122.7z"/>
<path class="st0" d="M376.7,122.7h2.8c1.1,0,2.2,0,3.2,0.2c0.8,0.2,1.5,0.6,2.1,1.2c0.5,0.7,0.8,1.5,0.8,2.4c0,0.7-0.2,1.4-0.5,2
	c-0.4,0.6-0.9,1.1-1.6,1.3c-0.9,0.3-1.9,0.5-2.8,0.5l5.1,6.6h-1.8l-5.1-6.6h-0.8v6.6h-1.4L376.7,122.7z M378.2,124.1v4.9h2.5
	c0.7,0,1.4-0.1,2.1-0.3c0.4-0.2,0.8-0.5,1.1-0.9c0.3-0.4,0.4-0.9,0.4-1.3c0-0.5-0.1-0.9-0.4-1.3c-0.2-0.4-0.6-0.7-1-0.8
	c-0.7-0.2-1.4-0.3-2.1-0.2L378.2,124.1z"/>
<path class="st0" d="M388.7,137v-14.3h0.3l9.5,10.9v-10.9h1.4V137h-0.3l-9.4-10.8V137H388.7z"/>
<path class="st0" d="M409.2,122.7l6.6,14.3h-1.5l-2.2-4.7H406l-2.2,4.7h-1.6l6.7-14.3H409.2z M409.1,125.7l-2.5,5.2h4.8L409.1,125.7
	z"/>
<path class="st0" d="M415.1,124.1v-1.4h7.8v1.4h-3.2v12.9h-1.5v-12.9H415.1z"/>
<path class="st0" d="M424.8,122.7h1.4V137h-1.4V122.7z"/>
<path class="st0" d="M436.2,122.3c2-0.1,4,0.7,5.4,2.2c2.9,2.9,3,7.7,0,10.6c-1.4,1.4-3.3,2.2-5.3,2.2c-2,0-3.9-0.7-5.4-2.2
	c-1.4-1.4-2.2-3.3-2.2-5.3c0-1.3,0.3-2.7,1-3.8C431.1,123.8,433.6,122.3,436.2,122.3L436.2,122.3z M436.3,123.7
	c-2.1,0-4.1,1.2-5.2,3c-0.5,1-0.8,2-0.8,3.1c0,3.3,2.7,6,6,6c1.1,0,2.1-0.3,3.1-0.8c0.9-0.5,1.7-1.3,2.2-2.2c0.5-0.9,0.8-2,0.8-3.1
	c0-1.1-0.3-2.1-0.8-3.1c-0.5-0.9-1.3-1.7-2.2-2.2C438.4,124,437.4,123.7,436.3,123.7z"/>
<path class="st0" d="M446.7,137v-14.3h0.3l9.5,10.9v-10.9h1.4V137h-0.3l-9.4-10.8V137H446.7z"/>
<path class="st0" d="M467.2,122.7l6.6,14.3h-1.5l-2.2-4.7H464l-2.2,4.7h-1.6l6.7-14.3H467.2z M467.1,125.7l-2.5,5.2h4.8L467.1,125.7
	z"/>
<path class="st0" d="M476.1,122.7h1.4v12.9h5.5v1.4h-6.9L476.1,122.7z"/>
<path class="st0" d="M489.3,134.3l1.2-0.7c0.9,1.6,1.9,2.4,3,2.4c0.5,0,0.9-0.1,1.4-0.3c0.4-0.2,0.8-0.5,1-0.9
	c0.2-0.4,0.3-0.8,0.3-1.2c0-0.5-0.2-1-0.5-1.4c-0.7-0.9-1.5-1.6-2.4-2.3c-0.8-0.6-1.6-1.2-2.2-1.9c-0.5-0.6-0.7-1.4-0.8-2.2
	c0-0.6,0.1-1.2,0.5-1.7c0.3-0.5,0.7-0.9,1.3-1.2c0.5-0.3,1.1-0.4,1.8-0.4c0.7,0,1.3,0.2,1.9,0.5c0.7,0.5,1.4,1.1,1.9,1.8l-1.2,0.9
	c-0.4-0.5-0.8-1-1.4-1.4c-0.4-0.2-0.8-0.3-1.2-0.3c-0.5,0-1,0.2-1.4,0.5c-0.4,0.3-0.6,0.8-0.5,1.3c0,0.3,0.1,0.6,0.2,0.9
	c0.2,0.4,0.4,0.7,0.7,1c0.2,0.2,0.8,0.7,1.9,1.4c1,0.7,1.8,1.5,2.5,2.4c0.4,0.6,0.7,1.4,0.7,2.1c0,1-0.4,2-1.2,2.7
	c-0.8,0.7-1.8,1.2-2.9,1.1c-0.8,0-1.7-0.2-2.4-0.7C490.5,136.1,489.8,135.3,489.3,134.3z"/>
<path class="st0" d="M514,125.3l-1.1,0.9c-0.6-0.8-1.4-1.4-2.2-1.8c-0.9-0.4-1.9-0.6-2.9-0.6c-1.1,0-2.2,0.3-3.2,0.8
	c-0.9,0.5-1.7,1.3-2.3,2.2c-0.5,0.9-0.8,2-0.8,3.1c0,1.6,0.6,3.2,1.8,4.4c1.2,1.2,2.8,1.8,4.5,1.8c1.9,0,3.8-0.8,5-2.4l1.1,0.9
	c-0.7,0.9-1.6,1.6-2.7,2.1c-1.1,0.5-2.3,0.8-3.6,0.7c-2.2,0.1-4.4-0.8-5.9-2.5c-1.2-1.4-1.9-3.2-1.8-5.1c0-2,0.8-3.9,2.2-5.3
	c1.5-1.4,3.5-2.2,5.5-2.1c1.2,0,2.5,0.3,3.6,0.8C512.4,123.6,513.3,124.4,514,125.3z"/>
<path class="st0" d="M516.8,122.7h1.4v6h7.2v-6h1.4V137h-1.4v-6.9h-7.3v6.9h-1.4L516.8,122.7z"/>
<path class="st0" d="M537.2,122.3c2-0.1,4,0.7,5.4,2.2c2.9,2.9,3,7.7,0,10.6c-1.4,1.4-3.3,2.2-5.3,2.2c-2,0-3.9-0.7-5.4-2.2
	c-1.4-1.4-2.2-3.3-2.2-5.3c0-1.3,0.3-2.7,1-3.8C532.1,123.8,534.5,122.3,537.2,122.3L537.2,122.3z M537.2,123.7
	c-2.1,0-4.1,1.2-5.2,3c-0.5,1-0.8,2-0.8,3.1c0,3.3,2.7,6,6,6c1.1,0,2.1-0.3,3.1-0.8c0.9-0.5,1.7-1.3,2.2-2.2c0.5-0.9,0.8-2,0.8-3.1
	c0-1.1-0.3-2.1-0.8-3.1c-0.5-0.9-1.3-1.7-2.2-2.2C539.3,124,538.3,123.7,537.2,123.7z"/>
<path class="st0" d="M554.5,122.3c2-0.1,4,0.7,5.4,2.2c2.9,2.9,3,7.7,0,10.6c-1.4,1.4-3.3,2.2-5.3,2.2c-2,0-3.9-0.7-5.4-2.2
	c-1.4-1.4-2.2-3.3-2.2-5.3c0-1.3,0.3-2.6,1-3.8C549.3,123.8,551.8,122.3,554.5,122.3L554.5,122.3z M554.5,123.7
	c-1.1,0-2.1,0.3-3,0.8c-0.9,0.5-1.7,1.3-2.2,2.2c-0.5,1-0.8,2-0.8,3.1c0,3.3,2.7,6,6,6c1.1,0,2.1-0.3,3.1-0.8
	c0.9-0.5,1.7-1.3,2.2-2.2c0.5-0.9,0.8-2,0.8-3.1c0-1.1-0.3-2.1-0.8-3.1c-0.5-0.9-1.3-1.7-2.2-2.2C556.6,124,555.6,123.7,554.5,123.7
	z"/>
<path class="st0" d="M564.9,122.7h1.4v12.9h5.5v1.4h-6.9V122.7z"/>
<path class="st0" d="M546.8,82.1h3.6V71.9c-0.1-2.5,0.1-5.1,0.5-7.6c0.5-2.1,1.7-3.9,3.4-5.3c1.6-1.4,3.7-2.2,5.8-2.1
	c1.6-0.1,3.3,0.4,4.6,1.4c1.3,1.1,2.1,2.5,2.4,4.1c0.3,2.1,0.5,4.3,0.4,6.4v13.3h3.6V67.8c0-3.8-0.4-6.6-1.2-8.3
	c-0.7-1.7-2-3.2-3.6-4.3c-1.6-1.1-3.6-1.6-5.5-1.6c-2,0-3.9,0.5-5.7,1.4c-1.9,1.1-3.5,2.5-4.7,4.3v-5h-3.6L546.8,82.1z M535.5,60.4
	c2.1,2.1,3.3,5,3.2,8c0,2-0.5,3.9-1.5,5.6c-0.9,1.7-2.3,3.1-3.9,4c-3.4,1.9-7.5,1.9-10.9,0c-1.7-0.9-3-2.3-3.9-4
	c-1-1.7-1.5-3.6-1.5-5.6c-0.1-3,1.1-5.9,3.2-8c4-4.2,10.7-4.4,14.9-0.4C535.2,60.1,535.3,60.2,535.5,60.4 M517.2,58.2
	c-5.2,5.8-5.1,14.5,0.2,20.2c5.7,5.8,15,5.8,20.7,0.1c0,0,0.1-0.1,0.1-0.1c5.3-5.6,5.4-14.4,0.2-20.2c-5.4-5.9-14.6-6.2-20.5-0.8
	C517.7,57.7,517.4,57.9,517.2,58.2 M502.7,53.5c-2-0.1-4,0.7-5.5,2.1c-1.4,1.4-2.2,3.3-2.2,5.2c0,1.5,0.5,3.1,1.4,4.3
	c1.4,1.6,3.1,3,5.1,3.8c1.7,0.7,3.2,1.8,4.5,3c0.7,0.8,1,1.7,1,2.7c0,1.2-0.6,2.4-1.5,3.2c-1,0.9-2.3,1.4-3.7,1.4c-2,0-4-1-5.8-3.1
	l-2.2,2.6c1,1.2,2.2,2.2,3.6,2.9c1.4,0.7,3,1,4.6,1c2.2,0.1,4.4-0.8,6-2.4c1.6-1.5,2.4-3.6,2.4-5.8c0-1.6-0.5-3.1-1.4-4.4
	c-1.5-1.7-3.4-3.1-5.4-4c-1.6-0.7-3.1-1.7-4.3-2.9c-0.6-0.7-1-1.6-1-2.6c0-1,0.5-2,1.2-2.7c0.8-0.8,1.9-1.2,3-1.2
	c1.8,0,3.7,0.9,5.6,2.8l2.3-2.4C507.9,54.8,505.3,53.5,502.7,53.5 M480,82.1h3.6v-9.4c0-4.8,0.2-8,0.7-9.6c0.4-1.7,1.3-3.3,2.5-4.6
	c0.9-0.9,2.2-1.4,3.4-1.5c0.7,0,1.3,0.2,1.9,0.5l1.9-3c-1-0.6-2-0.9-3.2-0.9c-1.4,0-2.7,0.4-3.8,1.2c-1.4,1-2.5,2.2-3.4,3.6v-4.1
	H480V82.1z M451.1,65.4c0.5-2.2,1.6-4.2,3.2-5.7c1.9-1.7,4.4-2.7,7-2.6c1.6,0,3.2,0.3,4.7,1c1.4,0.6,2.6,1.6,3.6,2.8
	c1,1.4,1.7,2.9,2.1,4.6L451.1,65.4z M468.7,76.8c-1,0.9-2.2,1.5-3.4,2c-1.3,0.5-2.7,0.7-4.1,0.7c-2.8,0.1-5.5-1.1-7.4-3.1
	c-2-2.1-3.1-5-3.1-7.9h25c0.1-3.4-1-6.8-3.1-9.5c-2.7-3.5-6.9-5.5-11.3-5.4c-4.3-0.1-8.4,1.8-11,5.3c-2.1,2.7-3.3,6-3.2,9.4
	c0,3.7,1.4,7.3,3.8,10.1c2.6,3,6.1,4.4,10.6,4.4c1.9,0,3.7-0.3,5.5-0.9c1.6-0.6,3.1-1.5,4.4-2.7c1.4-1.3,2.6-2.9,3.4-4.7l-3-1.6
	C471,74.4,470,75.7,468.7,76.8 M441.4,42.9c-1.1,0-2.2,0.2-3.2,0.8c-0.8,0.5-1.5,1.2-1.9,2.1c-0.4,1.4-0.6,2.8-0.5,4.3v4.3h-3.6v3.1
	h3.6v24.7h3.6V57.4h5.8v-3.1h-5.8v-3.8c0-1,0-2,0.2-2.9c0.2-0.4,0.5-0.8,0.9-1c0.5-0.3,1.1-0.4,1.7-0.4c1.2,0.1,2.3,0.3,3.4,0.8
	v-3.5C444.2,43.2,442.8,42.9,441.4,42.9 M424.8,42.9c-1.1,0-2.2,0.2-3.2,0.8c-0.8,0.5-1.5,1.2-1.9,2.1c-0.4,1.4-0.6,2.8-0.5,4.3v4.3
	h-3.6v3.1h3.6v24.7h3.6V57.4h5.8v-3.1h-5.8v-3.8c0-1,0-2,0.2-2.9c0.2-0.4,0.5-0.8,0.9-1c0.5-0.3,1.1-0.4,1.7-0.4
	c1.2,0.1,2.3,0.3,3.4,0.8v-3.5C427.6,43.2,426.2,42.9,424.8,42.9 M389.9,65.4c0.5-2.2,1.6-4.2,3.2-5.7c1.9-1.7,4.4-2.7,7-2.6
	c1.6,0,3.2,0.3,4.7,1c1.4,0.6,2.6,1.6,3.6,2.8c1,1.4,1.7,2.9,2.1,4.6L389.9,65.4z M407.5,76.8c-1,0.9-2.2,1.5-3.4,2
	c-1.3,0.5-2.7,0.7-4.1,0.7c-2.8,0.1-5.5-1.1-7.4-3.1c-2-2.1-3.1-5-3.1-7.9h25c0.1-3.4-1-6.8-3.1-9.5c-2.7-3.5-6.9-5.5-11.3-5.4
	c-4.3-0.1-8.4,1.8-11,5.3c-2.1,2.7-3.3,6-3.2,9.4c0,3.7,1.4,7.3,3.8,10.1c2.6,3,6.1,4.4,10.6,4.4c1.9,0,3.7-0.3,5.5-0.9
	c1.6-0.6,3.1-1.5,4.4-2.7c1.4-1.3,2.6-2.9,3.4-4.7l-3-1.6C409.8,74.4,408.8,75.7,407.5,76.8 M377.1,69.8c0.1,2.1-0.1,4.2-0.5,6.2
	c-0.3,1-1,1.9-1.8,2.6c-0.8,0.6-1.9,1-2.9,1c-0.9,0-1.7-0.2-2.5-0.6c-1.7-0.8-3.4-1.8-4.9-2.9l-2,3c1.5,1.3,3.1,2.3,4.9,3.1
	c1.4,0.6,2.9,0.9,4.5,0.9c1.8,0.1,3.6-0.4,5.1-1.4c1.4-0.9,2.4-2.1,3-3.6c0.6-1.5,0.9-4.2,0.9-8.1V44.5h-3.8L377.1,69.8z
	 M339.9,53.6c-2-0.1-4,0.7-5.5,2.1c-1.4,1.4-2.2,3.3-2.2,5.2c0,1.5,0.5,3.1,1.4,4.3c1.4,1.6,3.1,3,5.1,3.8c1.7,0.7,3.2,1.8,4.5,3
	c0.7,0.8,1,1.7,1,2.7c0,1.2-0.6,2.4-1.5,3.2c-1,0.9-2.3,1.4-3.7,1.4c-2,0-4-1-5.8-3.1l-2.2,2.6c1,1.2,2.2,2.2,3.6,2.9
	c1.4,0.7,3,1,4.6,1c2.2,0.1,4.4-0.8,6-2.4c1.6-1.5,2.4-3.6,2.4-5.8c0-1.6-0.5-3.1-1.4-4.4c-1.5-1.7-3.4-3.1-5.4-4
	c-1.6-0.7-3.1-1.7-4.3-2.9c-0.6-0.7-1-1.6-1-2.6c0-1,0.5-2,1.2-2.7c0.8-0.8,1.9-1.2,3-1.2c1.8,0,3.7,0.9,5.6,2.8l2.3-2.4
	C345.1,54.9,342.5,53.6,339.9,53.6 M321.3,60.3c2.1,2.1,3.3,5,3.2,8c0,2-0.5,3.9-1.4,5.7c-0.9,1.7-2.3,3.1-4,4
	c-1.7,1-3.6,1.5-5.5,1.5c-1.9,0-3.8-0.5-5.4-1.5c-1.7-1-3.1-2.4-4-4.2c-2-3.5-2-7.7,0-11.2c1.9-3.5,5.6-5.6,9.5-5.6
	C316.5,57,319.4,58.2,321.3,60.3 M324.3,54.3v5.1c-1.3-1.8-2.9-3.3-4.9-4.4c-1.9-1-4-1.5-6.2-1.4c-3.8-0.1-7.5,1.5-10.1,4.3
	c-2.8,2.7-4.4,6.4-4.4,10.2c-0.1,3.9,1.4,7.6,4.2,10.4c4.2,4.3,10.7,5.5,16.2,2.9c1.9-1,3.6-2.4,5-4.1v4.8h3.5V54.3L324.3,54.3z
	 M253.1,82.1h3.6V70.3c-0.1-2.6,0.2-5.2,1-7.7c0.6-1.6,1.8-3,3.2-4c1.3-1,3-1.5,4.6-1.5c1.3,0,2.6,0.3,3.7,1.1
	c1,0.7,1.8,1.7,2.2,2.9c0.5,2.2,0.7,4.5,0.6,6.8v14.2h3.6V71.2c0-4,0.3-6.8,1-8.5c0.6-1.6,1.7-3.1,3.1-4.1c1.4-1,3.1-1.5,4.8-1.5
	c1.3,0,2.6,0.3,3.7,1c1,0.6,1.8,1.6,2.2,2.7c0.5,2,0.7,4.1,0.6,6.1v15.2h3.6V66.9c0.1-2.6-0.2-5.3-1.1-7.8c-0.6-1.7-1.8-3.1-3.3-4.1
	c-1.5-1-3.3-1.5-5.1-1.4c-2,0-4,0.6-5.8,1.7c-1.9,1.3-3.4,3-4.5,5c-0.4-1.4-1.1-2.6-2-3.8c-0.8-0.9-1.9-1.6-3-2.1
	c-1.2-0.5-2.5-0.8-3.8-0.8c-2,0-4,0.6-5.7,1.6c-1.5,1-2.8,2.3-3.8,3.9v-4.8H253L253.1,82.1z M241.7,60.4c2.1,2.1,3.3,5,3.2,8
	c0,2-0.5,3.9-1.5,5.6c-0.9,1.7-2.3,3.1-3.9,4c-3.4,1.9-7.5,1.9-10.9,0c-1.7-0.9-3-2.3-3.9-4c-1-1.7-1.5-3.6-1.5-5.6
	c-0.1-3,1.1-5.9,3.2-8c4-4.2,10.7-4.4,14.9-0.4C241.5,60.1,241.6,60.2,241.7,60.4 M223.4,58.3c-5.2,5.8-5.1,14.5,0.2,20.2
	c5.7,5.8,15,5.8,20.7,0.1c0,0,0.1-0.1,0.1-0.1c5.3-5.6,5.4-14.4,0.2-20.2c-5.4-5.9-14.6-6.2-20.5-0.8
	C224,57.7,223.7,57.9,223.4,58.3 M191.2,82.1h3.6V71.9c-0.1-2.5,0.1-5.1,0.5-7.6c0.5-2.1,1.7-3.9,3.4-5.3c1.6-1.4,3.7-2.2,5.8-2.1
	c1.6-0.1,3.3,0.4,4.6,1.4c1.2,1.1,2.1,2.5,2.4,4.1c0.3,2.1,0.5,4.3,0.4,6.4v13.3h3.6V67.8c0-3.8-0.4-6.6-1.1-8.4
	c-0.7-1.7-2-3.2-3.6-4.2c-1.6-1.1-3.6-1.6-5.5-1.6c-2,0-3.9,0.5-5.6,1.4c-1.9,1.1-3.5,2.5-4.8,4.3V43.6h-3.6L191.2,82.1z
	 M176.3,48.2v33.9h3.8V48.2h8.3v-3.7h-20.5v3.7H176.3z"/>
<path class="st0" d="M371.8,83.1c-1.6,0-3.1-0.3-4.5-0.9c-1.8-0.8-3.5-1.8-4.9-3.1l-0.1-0.1l2.1-3.2l0.1,0.1
	c1.5,1.1,3.2,2.1,4.9,2.9c1.7,0.9,3.7,0.7,5.3-0.4c0.8-0.6,1.5-1.5,1.8-2.5c0.4-2,0.6-4.1,0.5-6.2V44.4h4v25.5
	c0,3.9-0.3,6.6-0.9,8.2c-0.6,1.5-1.7,2.8-3.1,3.7C375.4,82.7,373.6,83.2,371.8,83.1z M362.6,79c1.4,1.2,3,2.2,4.7,3
	c1.4,0.6,2.9,0.9,4.4,0.9c1.8,0,3.5-0.4,5-1.3c1.4-0.8,2.4-2.1,3-3.6c0.6-1.5,0.9-4.2,0.9-8.1V44.7h-3.5v25c0.1,2.1-0.1,4.2-0.5,6.3
	c-0.3,1.1-1,2-1.9,2.6c-1.6,1.2-3.8,1.3-5.6,0.4c-1.7-0.8-3.3-1.7-4.8-2.8L362.6,79z M527.8,82.9c-4,0.1-7.8-1.5-10.5-4.4
	c-5.4-5.7-5.5-14.6-0.2-20.4c5.5-5.9,14.7-6.3,20.7-0.8c0.3,0.3,0.6,0.5,0.8,0.8c5.3,5.8,5.2,14.7-0.2,20.4
	C535.7,81.5,531.8,83,527.8,82.9L527.8,82.9z M527.8,53.7c-4-0.1-7.9,1.6-10.5,4.6c-5.2,5.7-5.1,14.4,0.2,20
	c5.6,5.7,14.8,5.7,20.5,0.1c0,0,0.1-0.1,0.1-0.1c5.3-5.6,5.4-14.3,0.2-20C535.7,55.3,531.9,53.6,527.8,53.7L527.8,53.7z M502.1,82.9
	c-1.6,0-3.2-0.4-4.6-1.1c-1.4-0.7-2.7-1.7-3.7-2.9l-0.1-0.1l2.4-2.8l0.1,0.1c1.8,2,3.7,3,5.7,3c1.3,0,2.6-0.5,3.6-1.3
	c0.9-0.8,1.5-1.9,1.5-3.1c0-1-0.4-1.9-1-2.6c-1.3-1.2-2.8-2.2-4.5-2.9c-2-0.9-3.8-2.2-5.2-3.9c-0.9-1.3-1.4-2.8-1.4-4.4
	c-0.1-2,0.7-4,2.2-5.4c1.5-1.4,3.5-2.2,5.6-2.1c2.6,0,5.2,1.3,7.8,3.8l0.1,0.1l-2.5,2.6l-0.1-0.1c-1.9-1.8-3.7-2.7-5.5-2.7
	c-1.1,0-2.1,0.4-2.9,1.1c-0.8,0.6-1.2,1.6-1.2,2.6c0,0.9,0.4,1.8,1,2.5c1.2,1.2,2.7,2.2,4.2,2.9c2.1,0.9,3.9,2.3,5.5,4
	c0.9,1.3,1.5,2.9,1.4,4.4c0,2.2-0.8,4.4-2.5,5.9C506.6,82.1,504.4,83,502.1,82.9L502.1,82.9z M494.1,78.8c0.9,1.2,2.1,2.1,3.5,2.7
	c1.4,0.7,3,1,4.5,1c2.2,0.1,4.3-0.8,5.9-2.3c1.5-1.5,2.4-3.5,2.4-5.7c0-1.5-0.5-3-1.4-4.3c-1.5-1.7-3.3-3-5.4-3.9
	c-1.6-0.7-3.1-1.7-4.3-3c-0.7-0.7-1-1.7-1.1-2.7c0-1.1,0.5-2.1,1.2-2.7c0.8-0.8,1.9-1.2,3.1-1.2c1.8,0,3.7,0.9,5.6,2.7l2.1-2.2
	c-2.5-2.4-5-3.6-7.5-3.6c-2-0.1-3.9,0.6-5.4,2c-1.4,1.3-2.2,3.2-2.1,5.2c0,1.5,0.4,3,1.3,4.2c1.4,1.6,3.1,2.9,5.1,3.8
	c1.7,0.7,3.2,1.7,4.5,3c0.7,0.8,1,1.8,1,2.8c0,1.3-0.6,2.5-1.6,3.3c-1,0.9-2.4,1.4-3.8,1.4c-2,0-4-1-5.8-3L494.1,78.8z M461.5,82.9
	c-4.5,0-8.2-1.5-10.7-4.5c-2.5-2.8-3.9-6.4-3.9-10.2c0-3.4,1.1-6.8,3.3-9.5c2.6-3.5,6.8-5.4,11.1-5.3c4.5-0.1,8.7,1.9,11.5,5.4
	c2.1,2.7,3.2,6.1,3.1,9.6v0.2h-25c0,2.8,1.1,5.6,3,7.7c1.9,2,4.5,3.1,7.3,3c1.4,0,2.8-0.2,4.1-0.7c1.2-0.4,2.4-1.1,3.4-1.9
	c1.2-1.1,2.2-2.5,3-3.9l0.1-0.1l3.3,1.7l-0.1,0.1c-0.9,1.8-2,3.4-3.5,4.7c-1.3,1.2-2.8,2.1-4.4,2.8
	C465.2,82.6,463.4,82.9,461.5,82.9L461.5,82.9z M461.3,53.7c-4.3-0.1-8.3,1.8-10.9,5.2c-2.1,2.6-3.2,5.9-3.2,9.3
	c0,3.7,1.3,7.2,3.8,10c2.5,2.9,6,4.4,10.5,4.4c1.9,0,3.7-0.3,5.4-0.9c1.6-0.6,3.1-1.5,4.3-2.7c1.4-1.3,2.5-2.8,3.3-4.5l-2.8-1.5
	c-0.8,1.4-1.8,2.7-3,3.9c-1,0.9-2.2,1.6-3.5,2c-1.3,0.5-2.8,0.7-4.2,0.8c-2.8,0.1-5.5-1.1-7.5-3.1c-2-2.2-3.2-5-3.1-8v-0.1h25
	c0.1-3.3-1-6.6-3-9.3C469.9,55.6,465.7,53.6,461.3,53.7L461.3,53.7z M400.3,82.9c-4.5,0-8.2-1.5-10.7-4.5c-2.5-2.8-3.9-6.4-3.9-10.2
	c0-3.4,1.1-6.8,3.3-9.5c2.6-3.5,6.8-5.4,11.1-5.3c4.5-0.1,8.7,1.9,11.5,5.4c2.1,2.7,3.2,6.1,3.1,9.6v0.2h-25c0,2.8,1.1,5.6,3,7.7
	c1.9,2,4.5,3.1,7.3,3c1.4,0,2.8-0.2,4.1-0.7c1.2-0.4,2.4-1.1,3.4-1.9c1.2-1.1,2.2-2.5,3-3.9l0.1-0.1l3.3,1.7l-0.1,0.1
	c-0.9,1.8-2,3.4-3.5,4.7c-1.3,1.2-2.8,2.1-4.4,2.8C404,82.6,402.2,82.9,400.3,82.9L400.3,82.9z M400.1,53.7
	c-4.3-0.1-8.3,1.8-10.9,5.2c-2.1,2.6-3.2,5.9-3.2,9.3c0,3.7,1.3,7.2,3.8,10c2.5,2.9,6,4.4,10.5,4.4c1.9,0,3.7-0.3,5.4-0.9
	c1.6-0.6,3.1-1.5,4.3-2.7c1.4-1.3,2.5-2.8,3.3-4.5l-2.7-1.5c-0.8,1.4-1.8,2.7-3,3.9c-1,0.9-2.2,1.6-3.5,2c-1.3,0.5-2.8,0.7-4.2,0.8
	c-2.8,0.1-5.5-1.1-7.5-3.1c-2-2.2-3.2-5-3.1-8v-0.1h25c0.1-3.3-1-6.6-3-9.3C408.8,55.6,404.6,53.6,400.1,53.7L400.1,53.7z
	 M339.1,82.9c-1.6,0-3.2-0.4-4.6-1.1c-1.4-0.7-2.7-1.7-3.7-2.9l-0.1-0.1l2.4-2.8l0.1,0.1c1.8,2,3.7,3,5.7,3c1.3,0,2.6-0.5,3.6-1.3
	c0.9-0.8,1.5-1.9,1.5-3.1c0-1-0.4-1.9-1-2.6c-1.3-1.2-2.8-2.2-4.5-2.9c-2-0.9-3.8-2.2-5.2-3.9c-0.9-1.3-1.4-2.8-1.4-4.4
	c0-2,0.8-4,2.2-5.4c1.5-1.4,3.5-2.2,5.6-2.1c2.6,0,5.2,1.3,7.8,3.8l0.1,0.1l-2.5,2.6l-0.1-0.1c-1.9-1.8-3.7-2.7-5.5-2.7
	c-1.1,0-2.1,0.4-2.9,1.1c-0.7,0.6-1.2,1.6-1.2,2.6c0,0.9,0.4,1.8,1,2.5c1.2,1.2,2.7,2.2,4.2,2.9c2.1,0.9,3.9,2.3,5.5,4
	c0.9,1.3,1.4,2.9,1.4,4.4c0,2.2-0.8,4.4-2.5,5.9C343.6,82.1,341.4,82.9,339.1,82.9L339.1,82.9z M331.1,78.8c0.9,1.2,2.1,2.1,3.5,2.7
	c1.4,0.7,3,1,4.5,1c2.2,0.1,4.3-0.8,5.9-2.3c1.5-1.5,2.4-3.5,2.4-5.7c0-1.5-0.5-3-1.4-4.3c-1.5-1.7-3.3-3-5.4-3.9
	c-1.6-0.7-3.1-1.7-4.3-3c-0.7-0.7-1-1.7-1.1-2.7c0-1.1,0.5-2.1,1.3-2.8c0.8-0.8,1.9-1.2,3.1-1.2c1.8,0,3.7,0.9,5.6,2.7l2.1-2.2
	c-2.5-2.4-5-3.6-7.5-3.6c-2-0.1-3.9,0.6-5.4,2c-1.4,1.3-2.2,3.2-2.1,5.2c0,1.5,0.4,3,1.3,4.2c1.4,1.6,3.1,2.9,5.1,3.8
	c1.7,0.7,3.2,1.7,4.5,3c0.7,0.8,1,1.8,1,2.8c0,1.3-0.6,2.5-1.6,3.4c-1,0.9-2.4,1.4-3.8,1.4c-2,0-4-1-5.8-3L331.1,78.8z M312.9,82.9
	c-3.8,0-7.5-1.5-10.2-4.3c-2.8-2.8-4.3-6.6-4.2-10.5c-0.1-3.9,1.5-7.6,4.2-10.4c2.7-2.8,6.4-4.3,10.2-4.3c2.2,0,4.3,0.5,6.3,1.5
	c1.8,1,3.4,2.3,4.6,4v-4.8h3.8v28H324v-4.5c-1.3,1.6-3,2.9-4.8,3.8C317.2,82.4,315.1,82.9,312.9,82.9L312.9,82.9z M313,53.7
	c-3.8,0-7.4,1.5-10,4.2c-2.7,2.7-4.2,6.3-4.1,10.1c-0.1,3.8,1.4,7.6,4.1,10.3c4.2,4.3,10.6,5.4,16,2.9c1.9-1,3.6-2.4,5-4.1l0.3-0.3
	v5h3.2V54.5h-3.2v5.4l-0.3-0.4c-1.2-1.8-2.9-3.3-4.8-4.3C317.3,54.2,315.2,53.7,313,53.7L313,53.7z M234,82.9
	c-4,0.1-7.8-1.5-10.6-4.4c-5.4-5.7-5.5-14.6-0.2-20.4c5.5-5.9,14.7-6.3,20.7-0.8c0.3,0.3,0.6,0.5,0.8,0.8c5.2,5.8,5.1,14.7-0.2,20.4
	C241.9,81.4,238.1,83,234,82.9L234,82.9z M234,53.7c-4-0.1-7.9,1.6-10.5,4.6c-5.2,5.7-5.1,14.4,0.2,20c5.6,5.7,14.8,5.7,20.5,0.1
	c0,0,0.1-0.1,0.1-0.1c5.3-5.6,5.4-14.3,0.2-20C241.9,55.4,238.1,53.7,234,53.7L234,53.7z M571.1,82.2h-3.9V68.8
	c0.1-2.1-0.1-4.3-0.4-6.4c-0.3-1.6-1.1-3-2.3-4.1c-1.3-1-2.9-1.4-4.5-1.4c-2.1,0-4.1,0.7-5.7,2.1c-1.6,1.3-2.8,3.2-3.3,5.2
	c-0.4,2.5-0.6,5-0.5,7.5v10.3h-3.9v-28h3.9v4.7c1.2-1.6,2.8-3,4.5-4c1.8-1,3.7-1.4,5.7-1.4c2,0,4,0.5,5.7,1.7
	c1.6,1.1,2.9,2.6,3.6,4.3c0.8,1.8,1.2,4.6,1.2,8.4L571.1,82.2z M567.5,81.9h3.3V67.8c0-3.7-0.4-6.5-1.1-8.3
	c-0.7-1.7-1.9-3.2-3.5-4.2c-1.6-1-3.5-1.6-5.4-1.6c-2,0-3.9,0.5-5.6,1.4c-1.9,1.1-3.5,2.5-4.7,4.2l-0.3,0.4v-5.3h-3.3v27.4h3.3v-10
	c-0.1-2.5,0.1-5.1,0.5-7.6c0.5-2.1,1.7-4,3.4-5.4c1.6-1.4,3.7-2.2,5.9-2.2c1.7-0.1,3.3,0.4,4.7,1.4c1.3,1.1,2.1,2.6,2.4,4.2
	c0.3,2.1,0.5,4.3,0.4,6.4V81.9z M483.7,82.2h-4V54.1h4v3.7c0.9-1.3,2-2.4,3.2-3.2c1.1-0.8,2.5-1.2,3.9-1.2c1.1,0.1,2.3,0.4,3.2,1
	l0.1,0.1l-2,3.2l-0.1-0.1c-0.6-0.3-1.2-0.4-1.8-0.5c-1.3,0-2.5,0.5-3.4,1.4c-1.2,1.2-2.1,2.8-2.5,4.5c-0.4,1.6-0.7,4.8-0.7,9.6
	L483.7,82.2z M480,81.9h3.4v-9.2c0-4.8,0.2-8,0.7-9.6c0.4-1.8,1.3-3.4,2.6-4.6c1-0.9,2.2-1.5,3.5-1.5c0.6,0,1.3,0.2,1.8,0.4l1.7-2.8
	c-0.9-0.5-1.9-0.8-3-0.8c-1.3,0-2.6,0.4-3.7,1.2c-1.4,0.9-2.5,2.2-3.4,3.5l-0.3,0.4v-4.4h-3.4L480,81.9z M439.4,82.2h-3.9V57.5h-3.6
	v-3.4h3.6V50c-0.1-1.5,0.1-2.9,0.6-4.3c0.4-0.9,1.1-1.6,1.9-2.1c1-0.6,2.1-0.8,3.2-0.8c1.4,0,2.8,0.3,4.2,0.7h0.1v3.8l-0.2-0.1
	c-2.2-1-3.9-1.1-5-0.4c-0.4,0.2-0.6,0.5-0.8,0.9c-0.2,0.9-0.2,1.9-0.2,2.9v3.6h5.8v3.4h-5.8L439.4,82.2z M435.9,81.9h3.3V57.2h5.8
	v-2.8h-5.8v-3.9c0-1,0-2,0.2-3c0.2-0.5,0.5-0.8,0.9-1.1c1.1-0.7,2.8-0.6,5,0.3v-3.1c-1.3-0.4-2.6-0.6-4-0.7c-1.1,0-2.2,0.2-3.1,0.8
	c-0.8,0.5-1.4,1.2-1.8,2c-0.4,1.4-0.6,2.8-0.5,4.2v4.5h-3.6v2.8h3.6L435.9,81.9z M422.9,82.2H419V57.5h-3.5v-3.4h3.6V50
	c-0.1-1.5,0.1-2.9,0.6-4.3c0.4-0.9,1.1-1.6,1.9-2.1c1-0.6,2.1-0.8,3.2-0.8c1.4,0,2.8,0.3,4.2,0.7h0.1v3.8l-0.2-0.1
	c-2.2-1-3.9-1.1-5-0.4c-0.4,0.2-0.6,0.5-0.8,0.9c-0.2,0.9-0.2,1.9-0.2,2.9v3.6h5.8v3.4H423L422.9,82.2z M419.3,81.9h3.3V57.2h5.9
	v-2.8h-5.8v-3.9c0-1,0-2,0.2-3c0.2-0.5,0.5-0.8,0.9-1.1c1.1-0.7,2.8-0.6,5,0.3v-3.1c-1.3-0.4-2.6-0.6-4-0.7c-1.1,0-2.2,0.2-3.1,0.8
	c-0.8,0.5-1.4,1.2-1.8,2c-0.4,1.4-0.6,2.8-0.5,4.2v4.5h-3.6v2.8h3.6L419.3,81.9z M294.6,82.2h-4V66.9c0.1-2-0.1-4.1-0.6-6.1
	c-0.4-1.1-1.2-2-2.1-2.6c-1.1-0.7-2.3-1-3.6-1c-1.7,0-3.3,0.5-4.6,1.5c-1.4,1-2.5,2.4-3.1,4c-0.6,1.7-1,4.5-1,8.5v11h-3.8V67.8
	c0.1-2.3-0.1-4.6-0.6-6.8c-0.4-1.1-1.1-2.1-2.1-2.8c-1.1-0.7-2.3-1.1-3.6-1.1c-1.6,0-3.2,0.5-4.5,1.5c-1.4,1-2.5,2.4-3.1,4
	c-0.8,2.5-1.1,5.1-1,7.7v11.9h-3.9V54.1h3.9v4.5c1-1.4,2.2-2.6,3.6-3.5c1.7-1.1,3.7-1.6,5.8-1.7c1.3,0,2.7,0.3,3.9,0.8
	c1.1,0.5,2.2,1.2,3,2.1c0.8,1,1.5,2.2,1.9,3.5c1-1.9,2.5-3.5,4.3-4.7c1.7-1.1,3.8-1.7,5.8-1.7c1.8,0,3.6,0.5,5.2,1.5
	c1.5,1,2.7,2.4,3.3,4.1c0.8,2.5,1.2,5.2,1.1,7.9L294.6,82.2z M291,81.9h3.5v-15c0.1-2.6-0.2-5.3-1.1-7.7c-0.6-1.6-1.8-3-3.2-4
	c-1.5-1-3.2-1.5-5-1.4c-2,0-4,0.6-5.7,1.7c-1.9,1.2-3.4,2.9-4.4,4.9l-0.2,0.3l-0.1-0.3c-0.4-1.4-1.1-2.6-2-3.7
	c-0.8-0.9-1.8-1.6-2.9-2.1c-1.2-0.5-2.5-0.8-3.8-0.8c-2,0-3.9,0.6-5.6,1.6c-1.5,1-2.8,2.3-3.8,3.8l-0.3,0.4v-5.1h-3.3v27.4h3.2V70.3
	c-0.1-2.6,0.2-5.3,1-7.8c0.7-1.6,1.8-3.1,3.2-4.1c1.4-1,3-1.5,4.7-1.5c1.3,0,2.7,0.4,3.8,1.1c1.1,0.7,1.8,1.8,2.2,3
	c0.5,2.2,0.7,4.6,0.6,6.9V82h3.4V71.2c0-4,0.3-6.9,1-8.6c0.6-1.7,1.7-3.1,3.2-4.2c1.4-1,3.1-1.6,4.8-1.6c1.3,0,2.6,0.3,3.8,1
	c1,0.7,1.8,1.6,2.2,2.8c0.5,2,0.8,4.1,0.6,6.2L291,81.9z M215.5,82.2h-3.9V68.8c0.1-2.1-0.1-4.3-0.4-6.4c-0.3-1.6-1.1-3-2.4-4.1
	c-1.3-0.9-2.8-1.4-4.4-1.3c-2.1,0-4.1,0.7-5.7,2.1c-1.6,1.3-2.8,3.2-3.3,5.2c-0.4,2.5-0.6,5-0.5,7.5v10.3h-3.9V43.4h3.9v15.4
	c1.2-1.6,2.8-3,4.6-4c1.8-1,3.7-1.4,5.7-1.4c2,0,3.9,0.5,5.6,1.6c1.6,1,2.9,2.5,3.6,4.3c0.8,1.8,1.2,4.6,1.2,8.4L215.5,82.2z
	 M211.9,81.9h3.3V67.8c0-3.8-0.4-6.6-1.1-8.3c-0.7-1.7-1.9-3.2-3.5-4.2c-1.6-1-3.5-1.6-5.4-1.6c-1.9,0-3.9,0.5-5.6,1.4
	c-1.9,1.1-3.5,2.5-4.7,4.2l-0.3,0.3v-16h-3.3v38.2h3.3v-10c-0.1-2.5,0.1-5.1,0.5-7.6c0.5-2.1,1.7-4,3.4-5.4c1.6-1.4,3.7-2.2,5.9-2.2
	c1.7-0.1,3.3,0.4,4.7,1.4c1.3,1.1,2.1,2.6,2.5,4.2c0.3,2.1,0.5,4.3,0.4,6.4L211.9,81.9z M180.2,82.2H176V48.4h-8.4v-4h20.9v4h-8.4
	L180.2,82.2z M176.3,81.9h3.5V48.1h8.4v-3.4h-20.2v3.4h8.4L176.3,81.9z M313.3,79.6c-1.9,0-3.9-0.5-5.5-1.5c-1.7-1-3.1-2.5-4.1-4.2
	c-2-3.5-2-7.8,0-11.4c1.9-3.5,5.6-5.7,9.6-5.7c3-0.1,5.9,1.1,7.9,3.3c2.1,2.2,3.3,5.1,3.2,8.2c0,2-0.5,4-1.4,5.8
	c-1,1.7-2.4,3.1-4.1,4.1C317.2,79.1,315.3,79.6,313.3,79.6L313.3,79.6z M313.3,57.2c-3.9,0-7.5,2.1-9.4,5.5c-2,3.4-2,7.6,0,11.1
	c0.9,1.7,2.3,3.1,4,4.1c1.6,1,3.5,1.5,5.4,1.5c1.9,0,3.8-0.5,5.5-1.5c1.7-0.9,3.1-2.3,4-3.9c0.9-1.7,1.4-3.7,1.4-5.6
	c0.1-3-1.1-5.8-3.1-7.9c-2-2.1-4.7-3.2-7.6-3.2L313.3,57.2z M527.7,79.5c-1.9,0-3.8-0.5-5.5-1.4c-1.7-1-3.1-2.4-4-4.1
	c-1-1.7-1.5-3.7-1.5-5.7c0-3,1.1-5.9,3.2-8.1c4.1-4.3,10.8-4.5,15.1-0.4c0.1,0.1,0.3,0.3,0.4,0.4c2.1,2.1,3.3,5,3.3,8.1
	c0,2-0.4,4-1.4,5.7c-0.9,1.7-2.3,3.1-4,4.1c-1.7,0.9-3.6,1.4-5.5,1.4L527.7,79.5z M527.7,57.2c-2.9,0-5.6,1.2-7.5,3.2
	c-2.1,2.1-3.2,4.9-3.2,7.8c0,1.9,0.5,3.8,1.4,5.5c0.9,1.7,2.2,3.1,3.9,4c3.3,1.9,7.4,1.9,10.8,0c1.6-0.9,3-2.3,3.9-4
	c1-1.7,1.4-3.6,1.4-5.5c0-2.9-1.1-5.8-3.2-7.9c-1.9-2.1-4.6-3.2-7.4-3.3L527.7,57.2z M234.1,79.5c-1.9,0-3.8-0.5-5.5-1.4
	c-1.7-1-3.1-2.4-4-4.1c-1-1.7-1.5-3.7-1.5-5.7c0-3,1.1-5.9,3.2-8.1c4.1-4.3,10.8-4.5,15.1-0.4c0.1,0.1,0.3,0.3,0.4,0.4
	c2.1,2.1,3.3,5,3.3,8.1c0,2-0.5,3.9-1.5,5.7c-0.9,1.7-2.3,3.1-4,4.1C237.9,79,236,79.5,234.1,79.5z M234.1,57.2
	c-2.9,0-5.6,1.2-7.6,3.2c-2.1,2.1-3.2,4.9-3.2,7.8c0,1.9,0.5,3.8,1.4,5.5c0.9,1.7,2.2,3.1,3.9,4c3.3,1.9,7.4,1.9,10.8,0
	c1.6-0.9,3-2.3,3.9-4c1-1.7,1.4-3.6,1.4-5.5c0-2.9-1.1-5.8-3.2-7.9C239.7,58.4,237,57.2,234.1,57.2z M472,65.5h-21.1l0-0.2
	c0.5-2.2,1.7-4.2,3.3-5.8c1.9-1.8,4.5-2.7,7.1-2.7c1.7,0,3.3,0.4,4.8,1.1c1.4,0.6,2.7,1.6,3.7,2.8c1,1.4,1.7,2.9,2.1,4.6L472,65.5z
	 M451.3,65.2h20.3c-0.4-1.6-1-3-2-4.3c-1-1.2-2.2-2.1-3.6-2.7c-1.5-0.7-3.1-1-4.7-1c-2.6,0-5,0.9-6.9,2.6
	C452.9,61.3,451.8,63.2,451.3,65.2L451.3,65.2z M410.8,65.5h-21.1l0-0.2c0.5-2.2,1.7-4.2,3.3-5.8c1.9-1.8,4.5-2.7,7.1-2.7
	c1.7,0,3.3,0.4,4.8,1.1c1.4,0.6,2.7,1.6,3.7,2.8c1,1.4,1.7,2.9,2.1,4.6L410.8,65.5z M390.1,65.2h20.3c-0.4-1.6-1-3-2-4.3
	c-1-1.2-2.2-2.1-3.6-2.7c-1.5-0.7-3.1-1-4.7-1c-2.6,0-5,0.9-6.9,2.6C391.8,61.3,390.7,63.1,390.1,65.2z"/>
<path class="st0" d="M307.8,19.1c1.6,1.6,2.5,3.8,2.5,6.1c0,1.5-0.4,3-1.1,4.3c-0.7,1.3-1.7,2.3-3,3.1c-2.6,1.4-5.7,1.4-8.3,0
	c-1.3-0.7-2.3-1.8-3-3.1c-0.7-1.3-1.1-2.8-1.1-4.3c0-2.3,0.8-4.5,2.4-6.1c3-3.2,8.1-3.4,11.3-0.4C307.6,18.8,307.7,18.9,307.8,19.1
	 M293.8,17.4c-4,4.4-3.9,11.1,0.2,15.4c4.4,4.4,11.4,4.4,15.8,0.1c0,0,0.1-0.1,0.1-0.1c4.1-4.3,4.1-11,0.2-15.4
	c-4.1-4.5-11.1-4.8-15.6-0.6C294.2,17,294,17.2,293.8,17.4 M281.6,14.4h-3.7v2.4h3.7v18.9h2.7V16.8h4.3v-2.3h-4.3V6.6h-2.7V14.4z
	 M255.4,24.7c-0.1,2.3,0.2,4.6,1,6.8c0.6,1.5,1.7,2.7,3.1,3.5c1.6,0.9,3.4,1.3,5.2,1.3c1.8,0.1,3.6-0.4,5.1-1.3
	c1.4-0.8,2.4-2,3.1-3.5c0.8-2.1,1.1-4.4,1-6.6V14.5h-2.8v9.9c0.1,1.7-0.1,3.5-0.4,5.2c-0.4,1.2-1.2,2.2-2.2,2.9
	c-1.1,0.8-2.5,1.1-3.9,1.1c-1.4,0-2.8-0.4-3.9-1.1c-1.1-0.7-1.9-1.8-2.2-3.1c-0.3-1.6-0.5-3.3-0.4-5v-9.9h-2.7V24.7z M245.4,14.5
	h-3.7v2.4h3.7v18.8h2.7V16.8h4.3v-2.3h-4.3V6.6h-2.7V14.5z M235.4,35.7h2.7V14.5h-2.7V35.7z M235.2,6.4c-0.4,0.4-0.7,1-0.7,1.6
	c0,1.2,1,2.2,2.2,2.2c1.2,0,2.2-1,2.2-2.2c0-1.2-1-2.3-2.2-2.3c0,0,0,0,0,0C236.2,5.7,235.6,6,235.2,6.4 M225.5,14.5h-3.7v2.4h3.7
	v18.8h2.7V16.8h4.3v-2.3h-4.3V6.6h-2.7V14.5z M213.2,13.9c-1.5,0-3,0.5-4.2,1.6c-1.1,1-1.7,2.5-1.6,4c0,1.2,0.3,2.3,1,3.3
	c1.1,1.3,2.4,2.3,3.9,2.9c1.3,0.6,2.4,1.3,3.4,2.3c0.5,0.6,0.8,1.3,0.8,2.1c0,0.9-0.4,1.9-1.1,2.5c-0.8,0.7-1.8,1.1-2.8,1.1
	c-1.8-0.1-3.4-1-4.4-2.4l-1.7,1.9c0.7,0.9,1.7,1.7,2.8,2.2c1.1,0.5,2.3,0.8,3.5,0.8c1.7,0,3.4-0.6,4.6-1.8c1.2-1.2,1.9-2.8,1.8-4.4
	c0-1.2-0.4-2.4-1.1-3.3c-1.2-1.3-2.6-2.3-4.1-3c-1.2-0.5-2.3-1.3-3.3-2.2c-0.5-0.5-0.8-1.3-0.8-2c0-0.8,0.4-1.5,0.9-2
	c0.6-0.6,1.4-0.9,2.3-0.9c1.7,0.1,3.2,0.8,4.3,2.1l1.8-1.8C217.2,14.9,215.2,13.9,213.2,13.9 M185,35.6h2.7v-7.8
	c-0.1-1.9,0.1-3.9,0.4-5.8c0.4-1.6,1.3-3,2.6-4c1.2-1.1,2.8-1.6,4.4-1.6c1.3-0.1,2.5,0.3,3.5,1.1c1,0.8,1.6,1.9,1.8,3.2
	c0.3,1.6,0.4,3.3,0.3,4.9v10.1h2.7V24.7c0.1-2.2-0.2-4.3-0.9-6.4c-0.6-1.3-1.5-2.5-2.7-3.2c-1.3-0.8-2.7-1.2-4.2-1.2
	c-1.5,0-3,0.4-4.3,1.1c-1.4,0.8-2.7,1.9-3.6,3.3v-3.8H185L185,35.6z M176.8,35.6h2.9V7h-2.9V35.6z"/>
<path class="st0" d="M302,36.3c-3.1,0.1-6-1.1-8.1-3.4c-4.1-4.4-4.2-11.2-0.2-15.6c4.2-4.5,11.3-4.8,15.8-0.6
	c0.2,0.2,0.4,0.4,0.6,0.6c4,4.5,3.9,11.2-0.2,15.6C308,35.2,305.1,36.4,302,36.3z M302,14.1c-3.1-0.1-6,1.2-8,3.5
	c-3.9,4.3-3.8,10.9,0.2,15.2c4.3,4.3,11.3,4.4,15.6,0.1c0,0,0,0,0.1-0.1c4-4.3,4.1-10.9,0.2-15.2C308,15.3,305.1,14,302,14.1z
	 M264.8,36.3c-1.8,0.1-3.7-0.4-5.2-1.3c-1.4-0.8-2.5-2.1-3.2-3.6c-0.8-2.2-1.1-4.5-1-6.8V14.3h3v10c-0.1,1.7,0.1,3.3,0.4,4.9
	c0.3,1.2,1.1,2.3,2.2,3c1.1,0.8,2.5,1.1,3.9,1.1c1.3,0,2.7-0.3,3.8-1.1c1-0.7,1.8-1.7,2.1-2.8c0.3-1.7,0.5-3.4,0.4-5.2v-10h3.1v10.5
	c0.1,2.3-0.2,4.5-1,6.7c-0.7,1.5-1.8,2.7-3.2,3.6C268.4,36,266.6,36.4,264.8,36.3z M255.6,14.6v10c-0.1,2.3,0.2,4.6,1,6.7
	c0.6,1.4,1.7,2.6,3,3.4c3.2,1.6,7,1.6,10.2,0c1.3-0.8,2.4-2,3-3.4c0.8-2.1,1.1-4.3,1-6.5V14.6h-2.5v9.7c0.1,1.8-0.1,3.5-0.4,5.2
	c-0.4,1.2-1.2,2.3-2.2,3c-1.2,0.8-2.6,1.2-4,1.1c-1.4,0-2.8-0.4-4-1.2c-1.1-0.8-1.9-1.9-2.2-3.2c-0.3-1.6-0.5-3.3-0.4-5v-9.8H255.6z
	 M212.8,36.3c-1.2,0-2.5-0.3-3.6-0.8c-1.1-0.5-2.1-1.3-2.8-2.2l-0.1-0.1l1.9-2.1l0.1,0.1c1,1.4,2.6,2.2,4.3,2.3c1,0,2-0.3,2.7-1
	c0.7-0.6,1.1-1.5,1.1-2.4c0-0.7-0.3-1.4-0.7-2c-1-0.9-2.1-1.7-3.4-2.2c-1.5-0.7-2.9-1.7-4-3c-0.7-1-1.1-2.2-1.1-3.4
	c0-1.5,0.6-3,1.7-4.1c1.1-1.1,2.7-1.7,4.3-1.6c2,0,4,1,6,2.9l0.1,0.1l-2,2l-0.1-0.1c-1.1-1.2-2.6-2-4.2-2.1c-0.8,0-1.6,0.3-2.2,0.8
	c-0.6,0.5-0.9,1.2-0.9,1.9c0,0.7,0.3,1.4,0.8,1.9c0.9,0.9,2,1.7,3.2,2.2c1.6,0.7,3,1.8,4.2,3.1c0.7,1,1.1,2.2,1.1,3.4
	c0.1,1.7-0.6,3.4-1.8,4.6C216.2,35.7,214.5,36.4,212.8,36.3z M206.7,33.2c0.7,0.9,1.6,1.6,2.6,2.1c1.1,0.5,2.2,0.8,3.4,0.8
	c1.7,0,3.3-0.6,4.5-1.8c1.2-1.1,1.8-2.7,1.8-4.3c0-1.2-0.3-2.3-1-3.2c-1.1-1.3-2.5-2.3-4.1-3c-1.2-0.6-2.4-1.3-3.3-2.3
	c-0.5-0.6-0.8-1.3-0.8-2.1c0-0.8,0.4-1.6,1-2.2c0.6-0.6,1.5-0.9,2.4-0.9c1.6,0.1,3.1,0.9,4.2,2.1l1.5-1.6c-1.5-1.6-3.5-2.6-5.7-2.7
	c-1.5,0-3,0.5-4.1,1.6c-1.1,1-1.6,2.4-1.6,3.9c0,1.1,0.3,2.3,1,3.2c1,1.2,2.4,2.2,3.8,2.9c1.3,0.6,2.5,1.3,3.5,2.3
	c0.5,0.6,0.8,1.4,0.8,2.2c0,1-0.4,1.9-1.2,2.6c-0.8,0.7-1.8,1.1-2.9,1.1c-1.7-0.1-3.4-0.9-4.4-2.3L206.7,33.2z M284.5,35.8h-3V17
	h-3.7v-2.7h3.6V6.4h3v7.9h4.3V17h-4.3L284.5,35.8z M281.8,35.5h2.4V16.7h4.3v-2h-4.3V6.7h-2.4v7.9h-3.7v2h3.7V35.5z M248.3,35.8h-3
	V17h-3.7v-2.7h3.7V6.4h3v7.9h4.3V17h-4.3V35.8z M245.6,35.5h2.4V16.7h4.3v-2H248V6.7h-2.4v7.9h-3.7v2h3.7V35.5z M238.4,35.8h-3V14.3
	h3V35.8z M235.6,35.5h2.4V14.6h-2.4V35.5z M228.4,35.8h-3V17h-3.7v-2.7h3.7V6.4h3v7.9h4.3V17h-4.3L228.4,35.8z M225.7,35.5h2.4V16.7
	h4.3v-2h-4.3V6.7h-2.4v7.9H222v2h3.7L225.7,35.5z M203.6,35.8h-3V25.5c0.1-1.6,0-3.2-0.3-4.8c-0.2-1.2-0.8-2.3-1.8-3.1
	c-1-0.7-2.2-1.1-3.4-1c-1.6,0-3.1,0.6-4.3,1.6c-1.2,1-2.1,2.4-2.5,4c-0.3,1.9-0.4,3.8-0.4,5.7v7.9h-3V14.3h3v3.5
	c0.9-1.2,2.1-2.2,3.4-3c1.3-0.7,2.9-1.1,4.4-1.1c1.5,0,3,0.4,4.3,1.2c1.2,0.8,2.2,2,2.8,3.3c0.7,2.1,1,4.2,0.9,6.4L203.6,35.8z
	 M200.9,35.5h2.4V24.7c0.1-2.1-0.2-4.3-0.9-6.3c-0.5-1.3-1.5-2.4-2.7-3.2c-1.2-0.8-2.7-1.2-4.1-1.2c-1.5,0-2.9,0.4-4.2,1.1
	c-1.4,0.8-2.6,1.9-3.6,3.2l-0.3-0.1v-3.6h-2.5v20.9h2.4v-7.6c-0.1-1.9,0.1-3.9,0.4-5.8c0.4-1.6,1.3-3.1,2.6-4.1
	c1.3-1.1,2.9-1.7,4.5-1.7c1.3-0.1,2.6,0.3,3.6,1.1c1,0.8,1.6,2,1.9,3.2c0.3,1.6,0.4,3.3,0.3,4.9L200.9,35.5z M179.8,35.8h-3.2V6.9
	h3.2V35.8z M176.9,35.5h2.6V7.2h-2.6V35.5z M302,33.8c-1.5,0-2.9-0.4-4.2-1.1c-1.3-0.7-2.4-1.8-3.1-3.1c-0.7-1.3-1.1-2.8-1.1-4.4
	c0-2.3,0.9-4.5,2.5-6.2c3.1-3.3,8.3-3.4,11.6-0.3c0.1,0.1,0.2,0.2,0.3,0.3c1.6,1.6,2.5,3.9,2.5,6.2c0,1.5-0.4,3-1.1,4.4
	c-0.7,1.3-1.8,2.4-3.1,3.1C304.9,33.4,303.5,33.8,302,33.8L302,33.8z M302,16.8c-2.2,0-4.3,0.9-5.7,2.5c-1.6,1.6-2.4,3.8-2.4,6
	c0,1.5,0.4,2.9,1.1,4.2c0.7,1.3,1.7,2.3,3,3c2.5,1.4,5.6,1.4,8.2,0c1.3-0.7,2.3-1.7,3-3c0.7-1.3,1.1-2.7,1.1-4.2
	c0-2.2-0.8-4.4-2.4-6C306.3,17.6,304.2,16.7,302,16.8L302,16.8z M236.8,10.4c-1.3,0-2.4-1.1-2.4-2.4c0-0.6,0.2-1.3,0.7-1.7
	c0.9-0.9,2.4-0.9,3.4,0c0,0,0,0,0,0c0.5,0.4,0.7,1.1,0.7,1.7C239.2,9.3,238.1,10.4,236.8,10.4L236.8,10.4z M236.8,5.9
	c-0.6,0-1.1,0.2-1.5,0.6c-0.4,0.4-0.6,0.9-0.6,1.5c0,1.2,0.9,2.1,2.1,2.1c1.2,0,2.1-0.9,2.1-2.1C238.9,6.9,238,5.9,236.8,5.9
	L236.8,5.9z"/>
</svg>
